<svg id="visual" viewBox="0 0 960 540" width="960" height="540" xmlns="http://www.w3.org/2000/svg" xmlns:xlink="http://www.w3.org/1999/xlink" version="1.1"><path d="M0 310L42 310L42 374L83 374L83 358L125 358L125 358L167 358L167 352L209 352L209 301L250 301L250 310L292 310L292 322L334 322L334 304L376 304L376 365L417 365L417 299L459 299L459 299L501 299L501 336L543 336L543 298L584 298L584 332L626 332L626 350L668 350L668 335L710 335L710 340L751 340L751 309L793 309L793 341L835 341L835 358L877 358L877 351L918 351L918 329L960 329L960 352L960 541L960 541L918 541L918 541L877 541L877 541L835 541L835 541L793 541L793 541L751 541L751 541L710 541L710 541L668 541L668 541L626 541L626 541L584 541L584 541L543 541L543 541L501 541L501 541L459 541L459 541L417 541L417 541L376 541L376 541L334 541L334 541L292 541L292 541L250 541L250 541L209 541L209 541L167 541L167 541L125 541L125 541L83 541L83 541L42 541L42 541L0 541Z" fill="#1e293b"></path><path d="M0 371L42 371L42 380L83 380L83 395L125 395L125 408L167 408L167 403L209 403L209 397L250 397L250 336L292 336L292 393L334 393L334 372L376 372L376 399L417 399L417 387L459 387L459 363L501 363L501 333L543 333L543 351L584 351L584 364L626 364L626 342L668 342L668 394L710 394L710 366L751 366L751 333L793 333L793 392L835 392L835 342L877 342L877 351L918 351L918 364L960 364L960 393L960 541L960 541L918 541L918 541L877 541L877 541L835 541L835 541L793 541L793 541L751 541L751 541L710 541L710 541L668 541L668 541L626 541L626 541L584 541L584 541L543 541L543 541L501 541L501 541L459 541L459 541L417 541L417 541L376 541L376 541L334 541L334 541L292 541L292 541L250 541L250 541L209 541L209 541L167 541L167 541L125 541L125 541L83 541L83 541L42 541L42 541L0 541Z" fill="#1a2436"></path><path d="M0 450L42 450L42 417L83 417L83 434L125 434L125 412L167 412L167 392L209 392L209 392L250 392L250 412L292 412L292 431L334 431L334 393L376 393L376 447L417 447L417 445L459 445L459 407L501 407L501 389L543 389L543 444L584 444L584 399L626 399L626 398L668 398L668 388L710 388L710 421L751 421L751 389L793 389L793 397L835 397L835 425L877 425L877 414L918 414L918 407L960 407L960 445L960 541L960 541L918 541L918 541L877 541L877 541L835 541L835 541L793 541L793 541L751 541L751 541L710 541L710 541L668 541L668 541L626 541L626 541L584 541L584 541L543 541L543 541L501 541L501 541L459 541L459 541L417 541L417 541L376 541L376 541L334 541L334 541L292 541L292 541L250 541L250 541L209 541L209 541L167 541L167 541L125 541L125 541L83 541L83 541L42 541L42 541L0 541Z" fill="#162032"></path><path d="M0 421L42 421L42 438L83 438L83 460L125 460L125 439L167 439L167 473L209 473L209 477L250 477L250 448L292 448L292 424L334 424L334 451L376 451L376 487L417 487L417 425L459 425L459 421L501 421L501 484L543 484L543 461L584 461L584 441L626 441L626 475L668 475L668 440L710 440L710 442L751 442L751 436L793 436L793 425L835 425L835 455L877 455L877 476L918 476L918 458L960 458L960 452L960 541L960 541L918 541L918 541L877 541L877 541L835 541L835 541L793 541L793 541L751 541L751 541L710 541L710 541L668 541L668 541L626 541L626 541L584 541L584 541L543 541L543 541L501 541L501 541L459 541L459 541L417 541L417 541L376 541L376 541L334 541L334 541L292 541L292 541L250 541L250 541L209 541L209 541L167 541L167 541L125 541L125 541L83 541L83 541L42 541L42 541L0 541Z" fill="#121b2e"></path><path d="M0 514L42 514L42 484L83 484L83 507L125 507L125 468L167 468L167 522L209 522L209 498L250 498L250 481L292 481L292 501L334 501L334 519L376 519L376 485L417 485L417 525L459 525L459 519L501 519L501 483L543 483L543 477L584 477L584 515L626 515L626 518L668 518L668 465L710 465L710 495L751 495L751 497L793 497L793 522L835 522L835 473L877 473L877 510L918 510L918 489L960 489L960 466L960 541L960 541L918 541L918 541L877 541L877 541L835 541L835 541L793 541L793 541L751 541L751 541L710 541L710 541L668 541L668 541L626 541L626 541L584 541L584 541L543 541L543 541L501 541L501 541L459 541L459 541L417 541L417 541L376 541L376 541L334 541L334 541L292 541L292 541L250 541L250 541L209 541L209 541L167 541L167 541L125 541L125 541L83 541L83 541L42 541L42 541L0 541Z" fill="#0f172a"></path></svg>